<?xml version="1.0" encoding="UTF-8"?>
<!DOCTYPE svg PUBLIC "-//W3C//DTD SVG 1.1//EN" "http://www.w3.org/Graphics/SVG/1.1/DTD/svg11.dtd">
<!-- Creator: CorelDRAW -->
<svg xmlns="http://www.w3.org/2000/svg" xml:space="preserve" width="24.8755mm" height="35.4189mm" version="1.1" style="shape-rendering:geometricPrecision; text-rendering:geometricPrecision; image-rendering:optimizeQuality; fill-rule:evenodd; clip-rule:evenodd"
viewBox="0 0 4127.91 5877.51"
 xmlns:xlink="http://www.w3.org/1999/xlink"
 xmlns:xodm="http://www.corel.com/coreldraw/odm/2003">
 <defs>
  <style type="text/css">
   <![CDATA[
    .fil0 {fill:#F6F6F6;fill-rule:nonzero}
   ]]>
  </style>
 </defs>
 <g id="Layer_x0020_1">
  <metadata id="CorelCorpID_0Corel-Layer"/>
  <path class="fil0" d="M692.3 458.4l276.91 0c76.27,0 138.46,-62.2 138.46,-138.46l0 -181.48c0,-76.27 62.2,-138.46 138.46,-138.46l276.91 0c76.27,0 138.46,62.2 138.46,138.46l0 181.48c0,76.27 62.2,138.46 138.46,138.46l1774.11 0c240.25,0 445.62,154.34 522.02,368.94 15.57,43.73 9.44,88.3 -17.31,126.25 -26.77,37.93 -66.71,58.64 -113.16,58.64 -882.02,0 -1274.79,0 -2165.65,0 -76.27,-0.02 -138.48,62.2 -138.48,138.46l0 738.73c0,76.27 -62.2,138.46 -138.46,138.46l-276.91 0c-76.27,0 -138.46,-62.2 -138.46,-138.46l0 -738.73c0,-76.27 -62.2,-138.46 -138.46,-138.46l-276.91 0c-76.27,0 -138.46,62.2 -138.46,138.46l0 2854.2c0,76.27 -62.2,138.46 -138.46,138.46l-276.91 0c-76.27,0 -138.46,-62.2 -138.46,-138.46l0 -3451.06c0,-240.25 154.34,-445.61 368.94,-522.02 43.73,-15.57 88.3,-9.44 126.23,17.31 37.97,26.77 58.66,66.71 58.66,113.14l0 157.68c0,76.27 62.2,138.46 138.46,138.46zm-530.04 4238.79l806.95 0c76.27,0 138.46,-62.2 138.46,-138.46l0 -315.51c0,-305.04 248.8,-553.83 553.83,-553.83l804.91 0c305.04,0 553.83,248.8 553.83,553.83l0 315.51c0,76.27 62.2,138.46 138.46,138.46l276.91 0c76.27,0 138.46,-62.2 138.46,-138.46l0 -1284.71c0,-76.27 -62.21,-138.48 -138.48,-138.46 -1386.44,0 -955.2,0 -2189.4,0 -76.3,0.03 -138.53,-62.18 -138.53,-138.46l0 -276.91c0,-76.27 62.2,-138.46 138.46,-138.46l830.74 0c76.27,0 138.46,-62.2 138.46,-138.46l0 -323.36c0,-305.04 248.8,-553.83 553.83,-553.83l804.91 0c305.04,0 553.83,248.8 553.83,553.83l0 3188.41c0,240.25 -154.36,445.62 -368.94,522.02 -43.74,15.58 -88.3,9.46 -126.25,-17.31 -37.95,-26.77 -58.64,-66.69 -58.64,-113.14l0 -310.41c0,-76.25 -62.2,-138.45 -138.46,-138.45 -783.6,0 -656.62,0 -1635.65,0 -76.27,0 -138.46,62.2 -138.46,138.45l0 349.58c0,76.27 -62.2,138.46 -138.46,138.46l-276.91 0c-76.27,0 -138.46,-62.2 -138.46,-138.46l0 -349.58c0,-76.25 -62.2,-138.45 -138.46,-138.45l-415.37 0c-240.25,0 -445.62,-154.36 -522.02,-368.94 -15.57,-43.74 -9.46,-88.31 17.31,-126.25 26.77,-37.95 66.69,-58.64 113.14,-58.64zm1637.71 0l527.98 0c76.27,0 138.46,-62.2 138.46,-138.46l0 -177.04c0,-76.27 -62.2,-138.46 -138.46,-138.46l-527.98 0c-76.27,0 -138.46,62.2 -138.46,138.46l0 177.04c0,76.27 62.2,138.46 138.46,138.46zm1107.67 -2115.47l527.98 0c76.27,0 138.46,-62.2 138.46,-138.46l0 -184.89c0,-76.27 -62.2,-138.46 -138.46,-138.46l-527.98 0c-76.27,0 -138.46,62.2 -138.46,138.46l0 184.89c0,76.27 62.2,138.46 138.46,138.46z"/>
 </g>
</svg>
